<?xml version="1.0" encoding="utf-8"?>
<!-- Generator: Adobe Illustrator 26.0.2, SVG Export Plug-In . SVG Version: 6.00 Build 0)  -->
<svg version="1.1" id="_x32_" xmlns="http://www.w3.org/2000/svg" xmlns:xlink="http://www.w3.org/1999/xlink" x="0px" y="0px"
	 viewBox="0 0 512 512" style="enable-background:new 0 0 512 512;" xml:space="preserve">
<style type="text/css">
	.st0{fill:#FFFFFF;}
</style>
<g>
	<path class="st0" d="M256,0C114.6,0,0,114.6,0,256s114.6,256,256,256s256-114.6,256-256S397.4,0,256,0z M260.9,217.4
		c0.1,0,0.2,0,0.2,0c-0.9-3.8-1.3-7.7-1.3-11.7c0-28.3,23-51.3,51.3-51.3c14.7,0,28.1,6.2,37.4,16.2c9.6-1.9,18.7-5.2,27.1-9.5
		c1.8-0.9,3.6-1.7,5.3-2.7c-3,9.3-8.7,17.4-16.1,23.5c-2,1.6-4.1,3.1-6.3,4.3c0.2,0,0.3-0.1,0.5-0.1c-0.1,0.1-0.3,0.2-0.4,0.3
		c8.4-1,16.5-3.1,24.1-5.9c1.7-0.6,3.4-1.2,5.1-1.9c-6.8,10.2-15.5,19.1-25.4,26.3c0.1,2.2,0.1,4.4,0.1,6.6
		c0,67.7-51.6,145.8-145.8,145.8c-28.9,0-55.9-8.5-78.6-23c4,0.5,8.1,0.7,12.2,0.7c19.1,0,37-5.3,52.4-14.3
		c3.9-2.2,7.7-4.6,11.3-7.4c-0.1,0-0.2,0-0.3,0c0.1-0.1,0.2-0.1,0.3-0.2c-19.4-0.4-36.2-11.5-44.6-27.7c-1.2-2.5-2.3-5.1-3.2-7.8
		c3.1,0.6,6.2,0.9,9.5,0.9c3.4,0,6.7-0.4,9.9-1.1c1.2-0.2,2.4-0.3,3.6-0.5c-0.2,0-0.3-0.1-0.4-0.1c0.2,0,0.3-0.1,0.5-0.1
		c-23.4-4.7-41.1-25.4-41.1-50.3c0-0.2,0-0.4,0-0.6l0-0.1c5.5,3.1,11.7,5.1,18.2,5.9c1.6,0.3,3.2,0.5,4.8,0.7
		c-0.1-0.1-0.2-0.2-0.3-0.2c0.2,0,0.3,0,0.4,0c-13.8-9.2-22.8-24.9-22.8-42.7c0-8.1,2-15.8,5.4-22.6c0.5-1,1-2.1,1.6-3.1
		c22.7,27.8,55.5,47,92.8,52.2C252.5,216.7,256.7,217.2,260.9,217.4C260.9,217.4,260.9,217.4,260.9,217.4z"/>
</g>
</svg>
