<?xml version="1.0" encoding="utf-8"?>
<!-- Generator: Adobe Illustrator 26.0.2, SVG Export Plug-In . SVG Version: 6.00 Build 0)  -->
<svg version="1.1" id="_x32_" xmlns="http://www.w3.org/2000/svg" xmlns:xlink="http://www.w3.org/1999/xlink" x="0px" y="0px"
	 viewBox="0 0 512 512" style="enable-background:new 0 0 512 512;" xml:space="preserve">
<style type="text/css">
	.st0{fill:#FFFFFF;}
</style>
<g>
	<path class="st0" d="M439.5,225.2c63.8-95.2,44.7-175.4-14.4-208.9c-55.4-31.4-87.5-2.9-122.8,6.7c-44.7-29.8-107.1-33.4-185,6
		C79,27.4,32.8,65.7,40.8,102.4c3.2,14.9,14.4,24.5,26.5,30.7c-0.6,5.3-0.6,10.4,0.1,15c1.3,8.6,2,16,2.1,22.7
		c-7.1,3-24.2,9.4-36.6,8.2c0,0,14,11.2,34.2,11.3c-3.2,11.5-9.8,21.8-20.9,34.4c-11.9,13.6,1.1,21.3,6.4,24.5
		c5.3,3.2,8.5,15.9,3.2,21.3c-5.3,5.3,0,8.5,4.3,11.7c4.2,3.2-4.5,12,0,14.9c11.7,7.4,6.4,20.2,7.4,28.7c1.1,8.5,8.8,22,39.3,11.7
		c48.9-16.5,67,26.6,78.7,64.9c11.7,38.3-40.9,100.5-40.9,100.5c-22.3,25.5,81.3-8,122.8-23.9c22.8-8.8,75.5-33.5,61.7-47.8
		c0,0-26.6-14.4-40.9-41.5c-17.6-33.3-16.7-57.3-13.3-64.9c15.9-35.8,69.9-84.7,85.1-139.4c10.3-27.8,14-58.5,1.6-87.7
		c-4.6-10.7-9.9-20.8-15.9-30.1c26.4,5.5,61,23.4,43,80.6c-18.1,57.4-63.8,138.2-23.9,195.1c33.3,47.5,86.1,31.9,86.1,31.9
		C426.7,346.4,387.8,302.4,439.5,225.2z"/>
</g>
</svg>
