<svg id="Logo" xmlns="http://www.w3.org/2000/svg" viewBox="0 0 70 56.88"><defs><style>.cls-1{fill:#fff;}</style></defs><g id="Logo-2" data-name="Logo"><path id="white_background" data-name="white background" class="cls-1" d="M63.83,15.66c.05.61.05,1.23.05,1.85,0,19-14.45,40.87-40.87,40.87h0A40.71,40.71,0,0,1,1,51.93a30,30,0,0,0,3.42.2A28.8,28.8,0,0,0,22.25,46,14.38,14.38,0,0,1,8.84,36a14.19,14.19,0,0,0,6.48-.25A14.36,14.36,0,0,1,3.8,21.68V21.5a14.32,14.32,0,0,0,6.52,1.79A14.37,14.37,0,0,1,5.87,4.12a40.79,40.79,0,0,0,29.6,15A14.38,14.38,0,0,1,60,6a28.8,28.8,0,0,0,9.12-3.48,14.48,14.48,0,0,1-6.32,7.94A28.8,28.8,0,0,0,71,8.22,29.32,29.32,0,0,1,63.83,15.66Z" transform="translate(-1 -1.5)"/></g></svg>